<?xml version="1.0" encoding="UTF-8" standalone="no"?>
<svg
   version="1.0"
   width="358.000000pt"
   height="122.000000pt"
   viewBox="0 0 358.000000 122.000000"
   preserveAspectRatio="xMidYMid meet"
   id="svg14"
   sodipodi:docname="logo_novatec.svg"
   inkscape:version="1.2.1 (9c6d41e410, 2022-07-14)"
   xmlns:inkscape="http://www.inkscape.org/namespaces/inkscape"
   xmlns:sodipodi="http://sodipodi.sourceforge.net/DTD/sodipodi-0.dtd"
   xmlns="http://www.w3.org/2000/svg"
   xmlns:svg="http://www.w3.org/2000/svg">
  <defs
     id="defs18" />
  <sodipodi:namedview
     id="namedview16"
     pagecolor="#ffffff"
     bordercolor="#666666"
     borderopacity="1.0"
     inkscape:showpageshadow="2"
     inkscape:pageopacity="0.0"
     inkscape:pagecheckerboard="0"
     inkscape:deskcolor="#d1d1d1"
     inkscape:document-units="pt"
     showgrid="false"
     inkscape:zoom="2.7402235"
     inkscape:cx="227.53619"
     inkscape:cy="81.562691"
     inkscape:window-width="1920"
     inkscape:window-height="1001"
     inkscape:window-x="-9"
     inkscape:window-y="-9"
     inkscape:window-maximized="1"
     inkscape:current-layer="svg14" />
  <g
     transform="translate(0.000000,122.000000) scale(0.100000,-0.100000)"
     fill="#000000"
     stroke="none"
     id="g12"
     style="opacity:1;fill:#cb1626;fill-opacity:1">
    <path
       d="M2770 1180 c0 -5 23 -10 50 -10 l50 0 0 -66 0 -66 -27 5 c-270 57 -392 79 -508 93 -186 22 -753 31 -953 15 -650 -51 -1161 -226 -1289 -441 -147 -244 195 -483 869 -606 246 -44 368 -55 708 -61 455 -8 680 11 1024 83 315 67 566 169 686 281 69 63 110 135 110 193 0 82 -82 189 -200 262 -69 43 -214 109 -302 138 l-68 22 0 74 0 74 50 0 c28 0 50 5 50 10 0 6 -48 10 -125 10 -77 0 -125 -4 -125 -10z m-608 -76 c487 -48 882 -204 988 -390 37 -63 43 -135 16 -197 -95 -228 -591 -406 -1212 -437 -952 -46 -1744 266 -1568 618 128 258 775 445 1469 426 88 -3 226 -12 307 -20z"
       id="path2"
       style="fill:#cb1626;fill-opacity:1" />
    <path
       d="M1451 789 c-68 -12 -145 -53 -182 -98 l-29 -36 0 58 0 57 -105 0 -105 0 0 -40 c0 -22 -5 -40 -11 -40 -5 0 -37 18 -69 40 l-59 40 -105 0 -106 0 0 -165 0 -165 105 0 105 0 0 50 c0 54 6 59 36 33 97 -88 84 -83 204 -83 l110 0 0 52 0 53 23 -32 c74 -105 281 -146 424 -83 49 21 123 87 123 110 0 6 5 10 10 10 6 0 10 -25 10 -55 l0 -55 144 0 144 0 157 163 156 162 -137 3 -138 3 -58 -58 -58 -57 0 57 0 57 -105 0 -105 0 0 -65 c0 -37 -4 -65 -10 -65 -5 0 -10 7 -10 15 0 27 -76 92 -131 113 -67 25 -158 33 -228 21z m149 -154 c23 -21 26 -58 6 -74 -60 -50 -191 -13 -171 48 15 49 121 66 165 26z"
       id="path4"
       style="fill:#cb1626;fill-opacity:1" />
    <path
       d="M2384 608 l-159 -163 140 -3 140 -3 33 41 c19 22 38 40 43 40 5 0 9 -18 9 -40 l0 -40 105 0 105 0 0 165 0 165 -128 0 -128 0 -160 -162z"
       id="path6"
       style="fill:#cb1626;fill-opacity:1" />
    <path
       d="M3060 1105 l0 -85 110 0 c91 0 110 3 110 15 0 12 -17 15 -90 15 -89 0 -90 0 -90 25 0 24 3 25 55 25 30 0 55 5 55 10 0 6 -25 10 -55 10 -52 0 -55 1 -55 25 0 25 1 25 90 25 53 0 90 4 90 10 0 6 -43 10 -110 10 l-110 0 0 -85z"
       id="path8"
       style="fill:#cb1626;fill-opacity:1" />
    <path
       d="M3317 1184 c-4 -4 -7 -38 -7 -76 0 -64 2 -69 26 -78 34 -13 170 -13 195 0 25 14 25 40 -1 40 -11 0 -20 -5 -20 -10 0 -7 -29 -10 -77 -8 l-78 3 0 55 0 55 78 3 c48 2 77 -1 77 -8 0 -5 9 -10 21 -10 14 0 19 5 17 18 -3 15 -18 17 -114 20 -60 1 -113 -1 -117 -4z"
       id="path10"
       style="fill:#cb1626;fill-opacity:1" />
  </g>
</svg>
